<?xml version="1.0" encoding="UTF-8" standalone="no"?>
<!-- Generator: Adobe Illustrator 13.0.0, SVG Export Plug-In . SVG Version: 6.00 Build 14948)  -->
<svg xmlns:dc="http://purl.org/dc/elements/1.1/" xmlns:cc="http://creativecommons.org/ns#" xmlns:rdf="http://www.w3.org/1999/02/22-rdf-syntax-ns#" xmlns:svg="http://www.w3.org/2000/svg" xmlns="http://www.w3.org/2000/svg" xmlns:sodipodi="http://sodipodi.sourceforge.net/DTD/sodipodi-0.dtd" xmlns:inkscape="http://www.inkscape.org/namespaces/inkscape" version="1.1" x="0px" y="0px" width="481.467px" height="257.984px" viewBox="0 0 481.467 257.984" enable-background="new 0 0 481.467 257.984" xml:space="preserve" id="svg2" inkscape:version="0.48.4 r9939" sodipodi:docname="EVE_Logo.svg"><metadata id="metadata30"><rdf:RDF><cc:Work rdf:about=""><dc:format>image/svg+xml</dc:format><dc:type rdf:resource="http://purl.org/dc/dcmitype/StillImage"/></cc:Work></rdf:RDF></metadata><defs id="defs28"/><sodipodi:namedview pagecolor="#ffffff" bordercolor="#666666" borderopacity="1" objecttolerance="10" gridtolerance="10" guidetolerance="10" inkscape:pageopacity="0" inkscape:pageshadow="2" inkscape:window-width="1680" inkscape:window-height="990" id="namedview26" showgrid="false" inkscape:zoom="0.71656" inkscape:cx="240.73351" inkscape:cy="128.992" inkscape:window-x="-4" inkscape:window-y="-4" inkscape:window-maximized="1" inkscape:current-layer="svg2"/>
<g id="Ebene_2">
	
</g>
<g id="Ebene_1">
	<g id="schriftlogo_6_">
		<path fill="#002C52" d="M184.608,135.962c-1.568-0.271-2.031-0.274-2.529-1.075c-0.332-0.538-0.524-0.403-0.524-4.993V90.381    h1.329c3.277,0,3.312-0.072,3.312-3.311v-4.953c0-3.324-0.057-3.311-3.312-3.311h-1.329l-0.004-8.5    c0-2.491-0.82-2.918-3.313-2.918h-8.781c-2.486,0-3.313,0.428-3.313,2.918l0.006,8.5h-0.465c-3.285,0-3.317,0.066-3.317,3.311    v4.953c0,3.298-0.021,3.311,2.161,3.311h1.621c0,0,0,44.721,0,46.603s0.715,5.099,1.928,6.563c1.21,1.438,3.008,2.363,4.594,2.781    c1.593,0.387,3.457,0.586,7.185,0.586c0,0,2.639,0,3.553,0c3.197,0,3.501-0.582,3.501-5.688    C186.906,137.761,186.656,136.324,184.608,135.962z" id="path9"/>
		<path fill="#002C52" d="M156.935,85.05c-0.518-2.622-1.392-4.813-3.181-6.534c-1.772-1.712-3.543-2.551-6.342-2.551    c-2.502,0-4.442,0.792-5.979,1.822c-1.625,1.101-3.83,2.999-5.189,5.313l0.07-1.388c0-2.482,0.216-4.5-3.72-4.5h-8.106    c-3.724,0-3.714,2.018-3.714,4.5v61.439c0,2.491,0.127,3.714,3.714,3.714h7.73c3.651,0,3.71-1.223,3.71-3.714l0.003-49.34    c0-5.252,2.261-5.504,3.42-5.504c1.113,0,3.188,0.321,3.188,5.119v49.326c0,2.493-0.188,4.112,3.309,4.112h8.925    c3.229,0,2.921-1.619,2.921-4.112l0.007-44.677C157.698,91.98,157.444,87.649,156.935,85.05z" id="path11"/>
		<path fill="#002C52" d="M115.178,101.383c0-23.686-13.236-25.418-18.108-25.418c-3.753,0-18.611-0.123-18.611,25.313v19.708    c0,5.175,0.272,9.137,0.845,11.867c2.734,13.062,12.404,14.693,17.982,14.693c4.932,0,14.479-0.718,17.245-15.27    c0.445-2.314,0.647-6.814,0.647-11.122v-1.17h-0.021v-1.981c0-3.683-1.615-3.316-4.108-3.316h-6.863    c-2.49,0-3.317-0.073-3.317,3.316l0.003,10.472c-0.003,3.464-0.275,6.927-3.746,6.927c-3.058,0-3.572-2.247-3.56-7.539    l-0.058-19.491h19.275C115.155,108.371,115.178,106.705,115.178,101.383z M100.77,101.344h-7.165V96.87    c0-3.923,0.227-5.744,0.496-6.615c0.269-0.91,1.549-2.048,3.165-2.048c1.368,0,2.762,1.024,3.062,2.067    c0.292,1.058,0.442,2.985,0.442,6.595V101.344z" id="path13"/>
		<path fill="#002C52" d="M36.729,101.383c0-23.686-13.242-25.418-18.112-25.418C14.862,75.965,0,75.842,0,101.277v19.708    c0,5.175,0.276,9.137,0.845,11.867c2.741,13.062,12.404,14.693,17.985,14.693c4.926,0,14.482-0.718,17.252-15.27    c0.436-2.314,0.647-6.814,0.647-11.122v-1.17h-0.021v-1.981c0-3.683-1.625-3.316-4.11-3.316h-6.874    c-2.484,0-3.313-0.073-3.313,3.316l0.003,10.472c-0.003,3.464-0.271,6.927-3.746,6.927c-3.058,0-3.563-2.247-3.557-7.539    l-0.056-19.491h19.271C36.706,108.371,36.729,106.705,36.729,101.383z M22.316,101.344h-7.16V96.87    c0-3.923,0.216-5.744,0.492-6.615c0.263-0.91,1.553-2.048,3.162-2.048c1.373,0,2.765,1.024,3.062,2.067    c0.299,1.058,0.444,2.985,0.444,6.595V101.344z" id="path15"/>
		<path fill="#002C52" d="M72.435,76.351h-6.657c-4.089,0-3.864,1-4.149,4.045c0,0-3.354,48.59-3.354,48.854    c0,0.34-0.555,0.304-0.555,0c0-0.238-4.116-48.854-4.116-48.854c-0.286-3.044-0.063-4.045-4.147-4.045h-6.658    c-3.497,0-3.363,1.904-3.016,4.478l7.729,59.688h0.013l0.229,1.912c0.506,3.313,1.37,4.507,4.331,4.507h10.986    c3.301,0,4.251-1.076,4.759-4.573l7.618-61.533C75.803,78.255,75.936,76.351,72.435,76.351z" id="path17"/>
		<path fill="#002C52" d="M203.827,77.231h-8.592c-2.486,0-3.314,0.831-3.314,3.316v62.999c0,2.489,0.813,3.317,3.302,3.317h8.643    c2.486,0,3.277-0.878,3.277-3.368V80.549C207.142,78.063,206.313,77.231,203.827,77.231z" id="path19"/>
		<path fill="#002C52" d="M228.515,143.548c0,0,0.01-50.494,0.01-51.512c0-1.353,0.35-2.267,0.963-2.885    c0.643-0.646,1.949-0.981,2.883-0.792c1.228,0.246,1.736,1.078,1.984,2.187c0.31,1.356,0.246,5.473,0.246,12.296v40.771    c0,2.489,0.783,3.267,3.271,3.267l8.549-0.016c2.49,0,3.324-0.828,3.324-3.317l-0.021-45.813c0-4.574-0.101-5.938,0.344-7.36    c0.436-1.373,1.787-2.066,2.92-2.066c1.15,0,2.145,0.841,2.443,2.033c0.396,1.622,0.211,5.195,0.211,11.149l0.012,42.058    c0,2.489,0.824,3.317,3.313,3.317h8.57c2.486,0,3.313-0.828,3.313-3.317l-0.023-46.152c0-5.704-0.256-9.822-0.764-12.346    c-0.513-2.56-1.687-4.699-3.521-6.456c-1.809-1.747-3.399-2.629-6.188-2.629c-2.453,0-5.166,1.394-6.488,2.518    c-1.646,1.393-2.953,2.553-4.713,5.357c-1.904-5.324-4.766-7.875-9.128-7.875c-2.958,0-4.837,1.194-6.378,2.258    c-2.314,1.578-5.05,5.411-5.05,5.411h-0.083v-3.091c0-2.489-0.828-3.317-3.314-3.317h-7.359c-4.608,0-4.514,0.828-4.514,3.317    v63.005c0,2.489,0.297,3.317,4.906,3.317h6.967C227.687,146.865,228.515,146.037,228.515,143.548z" id="path21"/>
		<path fill="#002C52" d="M204.622,61.943h-10.174c-2.497,0-2.527,0.823-2.527,3.311v4.368c0,2.492,0.03,3.313,2.527,3.313h10.174    c2.49,0,2.521-0.82,2.521-3.313v-4.368C207.142,62.766,207.112,61.943,204.622,61.943z" id="path23"/>
	</g>
	<path id="Bildlogo_6_" fill="#FABB00" d="M425.066,86.385c1.277-18.165,16.438-32.429,34.596-32.429h21.742l0.063-1.843h-21.738   c-18.158,0-31.268-14.261-29.992-32.43L431.109,0h-1.768l-1.379,19.685c-1.271,18.169-16.627,32.43-34.785,32.43l-22.896,0.037   c-17.295,0-30.787-13.563-30.787-30.858V2.542h-1.739v18.751c0,17.296-13.556,30.858-30.857,30.858h-20.781v1.798h20.781   c17.303,0,30.857,13.563,30.857,30.862l-0.015,23.347c0,15.729-12.246,27.945-27.971,27.945h-18.892v1.787h18.892   c15.725,0,27.951,12.281,27.951,28.012l-0.006,20.794c0,14.938-11.566,26.519-26.502,26.519l-23.31-0.006   c-12.857,0-25.867-11.071-26.857-25.231l-0.834-15.174h-1.985l1.071,15.343c0.99,14.152-9.104,25.093-23.251,25.093h-17.006   l-0.017,1.772h17.009c14.144,0,26.203,10.947,27.191,25.104l1.09,15.572h1.6l-1.096-15.572   c-0.986-14.157,8.875-25.089,23.021-25.089h23.31c14.941,0,26.65,11.583,26.65,26.528v16.43h1.692v-16.43   c0-14.945,11.457-26.528,26.394-26.528h17.879l0.069-1.813h-17.877c-14.94,0-26.444-11.579-26.444-26.519l0.004-20.86   c0-15.723,12.153-27.944,27.877-27.944l23.41-0.015c16.198,0,28.012,12.688,26.881,28.884l-1.242,17.818h1.682l1.25-17.818   c1.127-16.194,14.584-28.857,30.783-28.857h19.39l0.053-1.816h-19.383c-16.193,0-27.734-12.604-26.599-28.805L425.066,86.385z    M423.302,86.385l-1.461,20.895c-1.133,16.201-14.787,28.822-30.979,28.822h-23.471c-15.723,0-27.892-12.216-27.892-27.945   l-0.004-23.347c0-17.3,13.488-30.862,30.783-30.862l22.828,0.008C411.273,53.957,424.572,68.22,423.302,86.385z"/>
</g>
</svg>