<?xml version="1.0" encoding="UTF-8" standalone="no"?>
<svg
   xmlns:dc="http://purl.org/dc/elements/1.1/"
   xmlns:cc="http://creativecommons.org/ns#"
   xmlns:rdf="http://www.w3.org/1999/02/22-rdf-syntax-ns#"
   xmlns:svg="http://www.w3.org/2000/svg"
   xmlns="http://www.w3.org/2000/svg"
   viewBox="0 0 497.69333 257.69333"
   height="257.69333"
   width="497.69333"
   xml:space="preserve"
   id="svg2"
   version="1.1"><metadata
     id="metadata8"><rdf:RDF><cc:Work
         rdf:about=""><dc:format>image/svg+xml</dc:format><dc:type
           rdf:resource="http://purl.org/dc/dcmitype/StillImage" /></cc:Work></rdf:RDF></metadata><defs
     id="defs6" /><g
     transform="matrix(1.3333333,0,0,-1.3333333,0,257.69333)"
     id="g10"><g
       transform="scale(0.1)"
       id="g12"><path
         id="path14"
         style="fill:#072747;fill-opacity:1;fill-rule:nonzero;stroke:none"
         d="M 0,0 H 3732.68 V 1932.74 H 0 V 0" /><path
         id="path16"
         style="fill:#ffffff;fill-opacity:1;fill-rule:nonzero;stroke:none"
         d="m 1465.51,916.621 c -11.19,1.938 -14.51,1.938 -18.07,7.66 -2.36,3.84 -3.73,2.891 -3.73,35.653 v 282.196 h 9.47 c 23.4,0 23.64,0.51 23.64,23.65 v 35.33 c 0,23.77 -0.37,23.68 -23.64,23.68 h -9.47 l -0.06,60.73 c 0,17.78 -5.84,20.83 -23.67,20.83 h -62.7 c -17.75,0 -23.65,-3.05 -23.65,-20.83 l 0.04,-60.73 h -3.31 c -23.51,0 -23.7,-0.51 -23.7,-23.68 v -35.33 c 0,-23.56 -0.16,-23.65 15.41,-23.65 h 11.6 c 0,0 0,-319.392 0,-332.81 0,-13.48 5.09,-36.429 13.78,-46.922 8.62,-10.218 21.47,-16.878 32.79,-19.828 11.32,-2.761 24.7,-4.211 51.3,-4.211 0,0 18.87,0 25.37,0 22.84,0 25,4.18 25,40.629 0,24.731 -1.77,35 -16.4,37.633" /><path
         id="path18"
         style="fill:#ffffff;fill-opacity:1;fill-rule:nonzero;stroke:none"
         d="m 1267.88,1280.2 c -3.71,18.72 -9.96,34.39 -22.74,46.67 -12.64,12.24 -25.29,18.23 -45.29,18.23 -17.84,0 -31.71,-5.65 -42.69,-13.03 -11.6,-7.84 -27.36,-21.43 -37.08,-37.94 l 0.54,9.91 c 0,17.73 1.52,32.1 -26.59,32.1 h -57.89 c -26.58,0 -26.54,-14.37 -26.54,-32.1 V 865.27 c 0,-17.801 0.94,-26.559 26.54,-26.559 h 55.2 c 26.11,0 26.51,8.758 26.51,26.559 l 0.02,352.37 c 0,37.49 16.12,39.31 24.43,39.31 7.95,0 22.77,-2.29 22.77,-36.55 V 868.09 c 0,-17.809 -1.34,-29.379 23.62,-29.379 h 63.74 c 23.06,0 20.87,11.57 20.87,29.379 l 0.05,319.07 c -0.02,43.55 -1.87,74.47 -5.47,93.04" /><path
         id="path20"
         style="fill:#ffffff;fill-opacity:1;fill-rule:nonzero;stroke:none"
         d="m 866.734,1163.81 h -51.171 v 31.95 c 0,28.04 1.628,41.06 3.554,47.29 1.93,6.46 11.063,14.64 22.613,14.64 9.758,0 19.723,-7.39 21.883,-14.76 2.063,-7.6 3.121,-21.38 3.121,-47.17 z m 102.934,-0.26 c 0,169.18 -94.555,181.55 -129.355,181.55 -26.801,0 -132.918,0.88 -132.918,-180.78 v -140.75 c 0,-36.996 1.941,-65.269 6.039,-84.769 19.519,-93.281 88.597,-104.949 128.429,-104.949 35.227,0 103.41,5.136 123.157,109.05 3.148,16.524 4.648,48.68 4.648,79.458 v 8.32 h -0.164 v 14.18 c 0,26.29 -11.535,23.69 -29.352,23.69 h -49.031 c -17.762,0 -23.672,0.53 -23.672,-23.69 l 0.028,-74.79 c -0.028,-24.757 -1.981,-49.441 -26.774,-49.441 -21.836,0 -25.5,16.004 -25.406,53.824 l -0.418,139.187 h 137.672 c 16.926,0 17.117,11.91 17.117,49.91" /><path
         id="path22"
         style="fill:#ffffff;fill-opacity:1;fill-rule:nonzero;stroke:none"
         d="m 306.438,1163.81 h -51.122 v 31.95 c 0,28.04 1.547,41.06 3.489,47.29 1.879,6.46 11.113,14.64 22.601,14.64 9.785,0 19.75,-7.39 21.856,-14.76 2.152,-7.6 3.176,-21.38 3.176,-47.17 z m 102.933,-0.26 c 0,169.18 -94.57,181.55 -129.355,181.55 -26.832,0 -132.961,0.88 -132.961,-180.78 v -140.75 c 0,-36.996 1.968,-65.269 6.043,-84.769 19.574,-93.281 88.59,-104.949 128.441,-104.949 35.184,0 103.438,5.136 123.219,109.05 3.109,16.524 4.613,48.68 4.613,79.458 v 8.32 h -0.129 v 14.18 c 0,26.29 -11.609,23.69 -29.379,23.69 h -49.086 c -17.75,0 -23.648,0.53 -23.648,-23.69 l 0.012,-74.79 c -0.012,-24.757 -1.911,-49.441 -26.743,-49.441 -21.839,0 -25.457,16.004 -25.402,53.824 l -0.402,139.187 h 137.629 c 16.972,0 17.148,11.91 17.148,49.91" /><path
         id="path24"
         style="fill:#ffffff;fill-opacity:1;fill-rule:nonzero;stroke:none"
         d="m 664.363,1342.34 h -47.539 c -29.191,0 -27.582,-7.15 -29.629,-28.88 0,0 -23.941,-347.042 -23.941,-348.948 0,-2.43 -3.969,-2.168 -3.969,0 0,1.718 -29.387,348.948 -29.387,348.948 -2.031,21.73 -0.429,28.88 -29.617,28.88 h -47.566 c -24.949,0 -24.02,-13.61 -21.543,-31.99 l 55.23,-426.311 h 0.078 l 1.645,-13.68 c 3.594,-23.597 9.789,-32.129 30.934,-32.129 h 78.464 c 23.563,0 30.36,7.68 33.985,32.641 l 54.398,439.479 c 2.532,18.38 3.485,31.99 -21.543,31.99" /><path
         id="path26"
         style="fill:#ffffff;fill-opacity:1;fill-rule:nonzero;stroke:none"
         d="m 1602.75,1336.05 h -61.34 c -17.76,0 -23.7,-5.95 -23.7,-23.69 V 862.398 c 0,-17.769 5.81,-23.687 23.58,-23.687 h 61.72 c 17.77,0 23.42,6.277 23.42,24.051 v 449.598 c 0,17.74 -5.92,23.69 -23.68,23.69" /><path
         id="path28"
         style="fill:#ffffff;fill-opacity:1;fill-rule:nonzero;stroke:none"
         d="m 1779.04,862.398 c 0,0 0.06,360.642 0.06,367.892 0,9.67 2.54,16.21 6.9,20.64 4.63,4.59 13.96,6.95 20.66,5.62 8.71,-1.73 12.3,-7.68 14.12,-15.62 2.17,-9.68 1.74,-39.05 1.74,-87.83 V 861.91 c 0,-17.75 5.62,-23.289 23.4,-23.289 l 61.07,0.09 c 17.78,0 23.73,5.918 23.73,23.687 l -0.19,327.212 c 0,32.68 -0.69,42.4 2.5,52.58 3.06,9.83 12.73,14.76 20.84,14.76 8.2,0 15.29,-6 17.4,-14.53 2.89,-11.59 1.54,-37.13 1.54,-79.61 l 0.14,-300.412 c 0,-17.769 5.82,-23.687 23.61,-23.687 h 61.23 c 17.74,0 23.66,5.918 23.66,23.687 l -0.18,329.632 c 0,40.72 -1.86,70.17 -5.45,88.17 -3.59,18.3 -12.03,33.59 -25.18,46.1 -12.89,12.51 -24.23,18.8 -44.19,18.8 -17.49,0 -36.86,-9.98 -46.31,-18 -11.76,-9.95 -21.08,-18.22 -33.68,-38.23 -13.55,38 -34.02,56.23 -65.17,56.23 -21.15,0 -34.57,-8.55 -45.53,-16.14 -16.56,-11.27 -36.09,-38.66 -36.09,-38.66 h -0.63 v 22.09 c 0,17.79 -5.86,23.72 -23.63,23.72 h -52.58 c -32.89,0 -32.24,-5.93 -32.24,-23.72 V 862.398 c 0,-17.769 2.12,-23.687 35.05,-23.687 h 49.77 c 17.77,0 23.63,5.918 23.63,23.687" /><path
         id="path30"
         style="fill:#ffffff;fill-opacity:1;fill-rule:nonzero;stroke:none"
         d="m 1608.44,1445.23 h -72.62 c -17.87,0 -18.11,-5.89 -18.11,-23.64 v -31.22 c 0,-17.78 0.24,-23.65 18.11,-23.65 h 72.62 c 17.79,0 17.99,5.87 17.99,23.65 v 31.22 c 0,17.75 -0.2,23.64 -17.99,23.64" /><path
         id="path32"
         style="fill:#fab20b;fill-opacity:1;fill-rule:nonzero;stroke:none"
         d="M 3170.21,1270.66 3159.8,1121.44 C 3151.72,1005.76 3054.18,915.57 2938.55,915.57 H 2770.9 c -112.25,0 -199.14,87.25 -199.14,199.59 l -0.06,166.75 c 0,123.56 96.35,220.41 219.86,220.41 l 163.01,-0.06 c 129.73,0 224.75,-101.83 215.64,-231.6 z m 12.6,0 c 9.16,129.77 117.42,231.6 247.09,231.6 h 155.28 l 0.45,13.15 h -155.28 c -129.63,0 -223.32,101.86 -214.2,231.63 l 9.85,140.59 h -12.66 l -9.82,-140.59 c -9.07,-129.77 -118.79,-231.63 -248.44,-231.63 l -163.52,-0.25 c -123.51,0 -219.86,96.85 -219.86,220.41 v 133.89 h -12.46 v -133.89 c 0,-123.56 -96.82,-220.41 -220.37,-220.41 h -148.48 v -12.84 h 148.48 c 123.55,0 220.37,-96.85 220.37,-220.41 l -0.1,-166.75 c 0,-112.34 -87.46,-199.59 -199.78,-199.59 h -134.93 v -12.738 h 134.93 c 112.32,0 199.64,-87.723 199.64,-200.062 l -0.04,-148.508 c 0,-106.711 -82.59,-189.383 -189.23,-189.383 l -166.51,0.043 c -91.83,0 -184.7,79.066 -191.81,180.18 l -5.94,108.398 h -14.18 l 7.62,-109.609 c 7.07,-101.051 -65.04,-179.172 -166,-179.172 h -121.48 l -0.12,-12.688 h 121.46 c 101.02,0 187.13,-78.191 194.24,-179.281 l 7.76,-111.2383 h 11.4 l -7.85,111.2383 c -7.01,101.09 63.42,179.211 164.45,179.211 h 166.47 c 106.72,0 190.35,-82.75 190.35,-189.492 V 45.1094 h 12.09 V 162.469 c 0,106.742 81.8,189.492 188.48,189.492 h 127.67 l 0.51,12.918 h -127.68 c -106.7,0 -188.86,82.672 -188.86,189.383 l 0.06,148.976 c 0,112.321 86.79,199.594 199.04,199.594 l 167.21,0.09 c 115.7,0 200.07,-90.602 191.93,-206.274 l -8.83,-127.257 h 12.03 l 8.91,127.257 c 8.05,115.672 104.18,206.09 219.84,206.09 h 138.48 l 0.35,12.973 h -138.38 c -115.64,0 -198.1,90.049 -189.96,205.729 l 10.33,149.22" /></g></g></svg>